REM DIRINDEX 1\2,1\3,1\4,1\5
REM DIRNAME folder01,folder02,folder03,folder04,folder05
TITLE ""
FILE "CD1Track10.mp3" MP3
  TRACK 01 AUDIO
    TITLE "5:cjc156_0938"
    INDEX 01 00:00:00
  TRACK 02 AUDIO
    TITLE "0:"
    INDEX 01 00:01:42
  TRACK 03 AUDIO
    TITLE "2:cjc156_0939"
    INDEX 01 00:02:51
  TRACK 04 AUDIO
    TITLE "3:cjc156_0940"
    INDEX 01 00:05:20
  TRACK 05 AUDIO
    TITLE "2:cjc156_0941"
    INDEX 01 00:07:74
  TRACK 06 AUDIO
    TITLE "3:cjc156_0942"
    INDEX 01 00:09:69
  TRACK 07 AUDIO
    TITLE "2:cjc156_0943"
    INDEX 01 00:11:70
  TRACK 08 AUDIO
    TITLE "3:cjc156_0944"
    INDEX 01 00:13:18
  TRACK 09 AUDIO
    TITLE "2:cjc156_0945"
    INDEX 01 00:14:47
  TRACK 10 AUDIO
    TITLE "3:cjc156_0946"
    INDEX 01 00:16:59
  TRACK 11 AUDIO
    TITLE "2:cjc156_0947"
    INDEX 01 00:19:07
  TRACK 12 AUDIO
    TITLE "3:cjc156_0948"
    INDEX 01 00:21:21
  TRACK 13 AUDIO
    TITLE "2:cjc156_0949"
    INDEX 01 00:23:42
  TRACK 14 AUDIO
    TITLE "3:cjc156_0950"
    INDEX 01 00:24:71
  TRACK 15 AUDIO
    TITLE "2:cjc156_0951"
    INDEX 01 00:26:32
  TRACK 16 AUDIO
    TITLE "3:cjc156_0952"
    INDEX 01 00:27:63
  TRACK 17 AUDIO
    TITLE "2:cjc156_0953"
    INDEX 01 00:29:33
  TRACK 18 AUDIO
    TITLE "3:cjc156_0954"
    INDEX 01 00:31:04
  TRACK 19 AUDIO
    TITLE "2:cjc156_0955"
    INDEX 01 00:32:56
  TRACK 20 AUDIO
    TITLE "3:cjc156_0956"
    INDEX 01 00:34:55
  TRACK 21 AUDIO
    TITLE "2:cjc156_0957"
    INDEX 01 00:36:58
  TRACK 22 AUDIO
    TITLE "3:cjc156_0958"
    INDEX 01 00:39:07
  TRACK 23 AUDIO
    TITLE "2:cjc156_0959"
    INDEX 01 00:41:38
  TRACK 24 AUDIO
    TITLE "3:cjc156_0960"
    INDEX 01 00:43:44
  TRACK 25 AUDIO
    TITLE "2:cjc156_0961"
    INDEX 01 00:45:47
  TRACK 26 AUDIO
    TITLE "3:cjc156_0962"
    INDEX 01 00:47:05
  TRACK 27 AUDIO
    TITLE "2:cjc156_0963"
    INDEX 01 00:48:40
  TRACK 28 AUDIO
    TITLE "3:cjc156_0964"
    INDEX 01 00:50:46
  TRACK 29 AUDIO
    TITLE "2:cjc156_0965"
    INDEX 01 00:52:61
  TRACK 30 AUDIO
    TITLE "3:cjc156_0966"
    INDEX 01 00:54:23
  TRACK 31 AUDIO
    TITLE "2:cjc156_0967"
    INDEX 01 00:55:67
  TRACK 32 AUDIO
    TITLE "3:cjc156_0968"
    INDEX 01 00:57:17
  TRACK 33 AUDIO
    TITLE "2:cjc156_0969"
    INDEX 01 00:58:36
  TRACK 34 AUDIO
    TITLE "3:cjc156_0970"
    INDEX 01 01:01:01
  TRACK 35 AUDIO
    TITLE "2:cjc156_0971"
    INDEX 01 01:03:37
  TRACK 36 AUDIO
    TITLE "3:cjc156_0972"
    INDEX 01 01:05:17
  TRACK 37 AUDIO
    TITLE "2:cjc156_0973"
    INDEX 01 01:07:02
  TRACK 38 AUDIO
    TITLE "3:cjc156_0974"
    INDEX 01 01:09:32
  TRACK 39 AUDIO
    TITLE "2:cjc156_0975"
    INDEX 01 01:11:66
  TRACK 40 AUDIO
    TITLE "3:cjc156_0976"
    INDEX 01 01:13:10
  TRACK 41 AUDIO
    TITLE "2:cjc156_0977"
    INDEX 01 01:14:33
  TRACK 42 AUDIO
    TITLE "3:cjc156_0978"
    INDEX 01 01:16:34
  TRACK 43 AUDIO
    TITLE "2:cjc156_0979"
    INDEX 01 01:18:37
  TRACK 44 AUDIO
    TITLE "3:cjc156_0980"
    INDEX 01 01:19:42
  TRACK 45 AUDIO
    TITLE "2:cjc156_0981"
    INDEX 01 01:20:49
  TRACK 46 AUDIO
    TITLE "3:cjc156_0982"
    INDEX 01 01:22:13
  TRACK 47 AUDIO
    TITLE "2:cjc156_0983"
    INDEX 01 01:23:54
  TRACK 48 AUDIO
    TITLE "3:cjc156_0984"
    INDEX 01 01:26:38
  TRACK 49 AUDIO
    TITLE "2:cjc156_0985"
    INDEX 01 01:29:29
  TRACK 50 AUDIO
    TITLE "3:cjc156_0986"
    INDEX 01 01:31:57
  TRACK 51 AUDIO
    TITLE "2:cjc156_0987"
    INDEX 01 01:34:12
  TRACK 52 AUDIO
    TITLE "3:cjc156_0988"
    INDEX 01 01:35:43
  TRACK 53 AUDIO
    TITLE "2:cjc156_0989"
    INDEX 01 01:37:07
  TRACK 54 AUDIO
    TITLE "3:cjc156_0990"
    INDEX 01 01:38:28
  TRACK 55 AUDIO
    TITLE "2:cjc156_0991"
    INDEX 01 01:39:63
  TRACK 56 AUDIO
    TITLE "3:cjc156_0992"
    INDEX 01 01:43:03
  TRACK 57 AUDIO
    TITLE "2:cjc156_0993"
    INDEX 01 01:46:29
  TRACK 58 AUDIO
    TITLE "3:cjc156_0994"
    INDEX 01 01:47:58
  TRACK 59 AUDIO
    TITLE "2:cjc156_0995"
    INDEX 01 01:49:18
  TRACK 60 AUDIO
    TITLE "3:cjc156_0996"
    INDEX 01 01:51:74
  TRACK 61 AUDIO
    TITLE "2:cjc156_0997"
    INDEX 01 01:54:56
  TRACK 62 AUDIO
    TITLE "3:cjc156_0998"
    INDEX 01 01:57:15
  TRACK 63 AUDIO
    TITLE "2:cjc156_0999"
    INDEX 01 01:59:53
  TRACK 64 AUDIO
    TITLE "3:cjc156_1000"
    INDEX 01 02:01:39
  TRACK 65 AUDIO
    TITLE "2:cjc156_1001"
    INDEX 01 02:03:28
  TRACK 66 AUDIO
    TITLE "3:cjc156_1002"
    INDEX 01 02:04:33
  TRACK 67 AUDIO
    TITLE "2:cjc156_1003"
    INDEX 01 02:05:46
  TRACK 68 AUDIO
    TITLE "3:cjc156_1004"
    INDEX 01 02:07:10
  TRACK 69 AUDIO
    TITLE "2:cjc156_1005"
    INDEX 01 02:08:58
  TRACK 70 AUDIO
    TITLE "3:cjc156_1006"
    INDEX 01 02:10:34
  TRACK 71 AUDIO
    TITLE "2:cjc156_1007"
    INDEX 01 02:12:19
  TRACK 72 AUDIO
    TITLE "3:cjc156_1008"
    INDEX 01 02:14:35
  TRACK 73 AUDIO
    TITLE "2:cjc156_1009"
    INDEX 01 02:16:60
  TRACK 74 AUDIO
    TITLE "3:cjc156_1010"
    INDEX 01 02:18:31
  TRACK 75 AUDIO
    TITLE "2:cjc156_1011"
    INDEX 01 02:20:03
  TRACK 76 AUDIO
    TITLE "3:cjc156_1012"
    INDEX 01 02:21:71
  TRACK 77 AUDIO
    TITLE "2:cjc156_1013"
    INDEX 01 02:23:64
  TRACK 78 AUDIO
    TITLE "3:cjc156_1014"
    INDEX 01 02:25:37
  TRACK 79 AUDIO
    TITLE "2:cjc156_1015"
    INDEX 01 02:27:24
  TRACK 80 AUDIO
    TITLE "3:cjc156_1016"
    INDEX 01 02:29:02
  TRACK 81 AUDIO
    TITLE "2:cjc156_1017"
    INDEX 01 02:30:58
  TRACK 82 AUDIO
    TITLE "3:cjc156_1018"
    INDEX 01 02:32:69
  TRACK 83 AUDIO
    TITLE "2:cjc156_1019"
    INDEX 01 02:35:16
  TRACK 84 AUDIO
    TITLE "3:cjc156_1020"
    INDEX 01 02:36:59
  TRACK 85 AUDIO
    TITLE "2:cjc156_1021"
    INDEX 01 02:38:38
  TRACK 86 AUDIO
    TITLE "3:cjc156_1022"
    INDEX 01 02:40:72
  TRACK 87 AUDIO
    TITLE "2:cjc156_1023"
    INDEX 01 02:43:35
  TRACK 88 AUDIO
    TITLE "3:cjc156_1024"
    INDEX 01 02:46:31
  TRACK 89 AUDIO
    TITLE "2:cjc156_1025"
    INDEX 01 02:49:28
  TRACK 90 AUDIO
    TITLE "3:cjc156_1026"
    INDEX 01 02:51:37
  TRACK 91 AUDIO
    TITLE "2:cjc156_1027"
    INDEX 01 02:53:43
  TRACK 92 AUDIO
    TITLE "3:cjc156_1028"
    INDEX 01 02:55:05
  TRACK 93 AUDIO
    TITLE "2:cjc156_1029"
    INDEX 01 02:56:49
  TRACK 94 AUDIO
    TITLE "3:cjc156_1030"
    INDEX 01 02:58:41
  TRACK 95 AUDIO
    TITLE "2:cjc156_1031"
    INDEX 01 03:00:41
  TRACK 96 AUDIO
    TITLE "3:cjc156_1032"
    INDEX 01 03:02:44
  TRACK 97 AUDIO
    TITLE "2:cjc156_1033"
    INDEX 01 03:04:49
  TRACK 98 AUDIO
    TITLE "3:cjc156_1034"
    INDEX 01 03:05:70
  TRACK 99 AUDIO
    TITLE "2:cjc156_1035"
    INDEX 01 03:07:22
  TRACK 100 AUDIO
    TITLE "3:cjc156_1036"
    INDEX 01 03:09:33
  TRACK 101 AUDIO
    TITLE "2:cjc156_1037"
    INDEX 01 03:11:41
  TRACK 102 AUDIO
    TITLE "3:cjc156_1038"
    INDEX 01 03:13:24
  TRACK 103 AUDIO
    TITLE "2:cjc156_1039"
    INDEX 01 03:15:17
  TRACK 104 AUDIO
    TITLE "3:cjc156_1040"
    INDEX 01 03:17:14
  TRACK 105 AUDIO
    TITLE "2:cjc156_1041"
    INDEX 01 03:19:19
  TRACK 106 AUDIO
    TITLE "3:cjc156_1042"
    INDEX 01 03:21:14
  TRACK 107 AUDIO
    TITLE "2:cjc156_1043"
    INDEX 01 03:23:13
  TRACK 108 AUDIO
    TITLE "3:cjc156_1044"
    INDEX 01 03:25:02
  TRACK 109 AUDIO
    TITLE "2:cjc156_1045"
    INDEX 01 03:26:70
  TRACK 110 AUDIO
    TITLE "3:cjc156_1046"
    INDEX 01 03:28:61
  TRACK 111 AUDIO
    TITLE "2:cjc156_1047"
    INDEX 01 03:30:50
  TRACK 112 AUDIO
    TITLE "3:cjc156_1048"
    INDEX 01 03:32:73
  TRACK 113 AUDIO
    TITLE "2:cjc156_1049"
    INDEX 01 03:35:24
  TRACK 114 AUDIO
    TITLE "3:cjc156_1050"
    INDEX 01 03:37:27
  TRACK 115 AUDIO
    TITLE "2:cjc156_1051"
    INDEX 01 03:39:38
  TRACK 116 AUDIO
    TITLE "3:cjc156_1052"
    INDEX 01 03:40:66
  TRACK 117 AUDIO
    TITLE "2:cjc156_1053"
    INDEX 01 03:42:28
  TRACK 118 AUDIO
    TITLE "3:cjc156_1054"
    INDEX 01 03:43:55
  TRACK 119 AUDIO
    TITLE "2:cjc156_1055"
    INDEX 01 03:45:21
  TRACK 120 AUDIO
    TITLE "3:cjc156_1056"
    INDEX 01 03:47:25
  TRACK 121 AUDIO
    TITLE "2:cjc156_1057"
    INDEX 01 03:49:40
  TRACK 122 AUDIO
    TITLE "3:cjc156_1058"
    INDEX 01 03:51:31
  TRACK 123 AUDIO
    TITLE "2:cjc156_1059"
    INDEX 01 03:53:30
  TRACK 124 AUDIO
    TITLE "3:cjc156_1060"
    INDEX 01 03:55:13
  TRACK 125 AUDIO
    TITLE "2:cjc156_1061"
    INDEX 01 03:56:71
  TRACK 126 AUDIO
    TITLE "3:cjc156_1062"
    INDEX 01 03:58:49
  TRACK 127 AUDIO
    TITLE "2:cjc156_1063"
    INDEX 01 04:00:28
  TRACK 128 AUDIO
    TITLE "3:cjc156_1064"
    INDEX 01 04:02:56
  TRACK 129 AUDIO
    TITLE "2:cjc156_1065"
    INDEX 01 04:05:15
  TRACK 130 AUDIO
    TITLE "3:cjc156_1066"
    INDEX 01 04:07:32
  TRACK 131 AUDIO
    TITLE "2:cjc156_1067"
    INDEX 01 04:09:50
  TRACK 132 AUDIO
    TITLE "3:cjc156_1068"
    INDEX 01 04:11:14
  TRACK 133 AUDIO
    TITLE "2:cjc156_1069"
    INDEX 01 04:12:59
  TRACK 134 AUDIO
    TITLE "3:cjc156_1070"
    INDEX 01 04:14:59
  TRACK 135 AUDIO
    TITLE "2:cjc156_1071"
    INDEX 01 04:16:70
  TRACK 136 AUDIO
    TITLE "3:cjc156_1072"
    INDEX 01 04:19:14
  TRACK 137 AUDIO
    TITLE "2:cjc156_1073"
    INDEX 01 04:21:42
  TRACK 138 AUDIO
    TITLE "3:cjc156_1074"
    INDEX 01 04:22:73
  TRACK 139 AUDIO
    TITLE "2:cjc156_1075"
    INDEX 01 04:24:30
  TRACK 140 AUDIO
    TITLE "3:cjc156_1076"
    INDEX 01 04:26:16
  TRACK 141 AUDIO
    TITLE "2:cjc156_1077"
    INDEX 01 04:28:05
  TRACK 142 AUDIO
    TITLE "3:cjc156_1078"
    INDEX 01 04:29:57
  TRACK 143 AUDIO
    TITLE "2:cjc156_1079"
    INDEX 01 04:31:44
  TRACK 144 AUDIO
    TITLE "3:cjc156_1080"
    INDEX 01 04:34:27
  TRACK 145 AUDIO
    TITLE "2:cjc156_1081"
    INDEX 01 04:37:17
  TRACK 146 AUDIO
    TITLE "3:cjc156_1082"
    INDEX 01 04:38:27
  TRACK 147 AUDIO
    TITLE "2:cjc156_1083"
    INDEX 01 04:39:40
  TRACK 148 AUDIO
    TITLE "3:cjc156_1084"
    INDEX 01 04:40:69
  TRACK 149 AUDIO
    TITLE "2:cjc156_1085"
    INDEX 01 04:42:28
  TRACK 150 AUDIO
    TITLE "3:cjc156_1086"
    INDEX 01 04:43:53
  TRACK 151 AUDIO
    TITLE "2:cjc156_1087"
    INDEX 01 04:45:13
  TRACK 152 AUDIO
    TITLE "3:cjc156_1088"
    INDEX 01 04:47:16
  TRACK 153 AUDIO
    TITLE "2:cjc156_1089"
    INDEX 01 04:49:32
  TRACK 154 AUDIO
    TITLE "3:cjc156_1090"
    INDEX 01 04:51:37
  TRACK 155 AUDIO
    TITLE "2:cjc156_1091"
    INDEX 01 04:53:50
  TRACK 156 AUDIO
    TITLE "3:cjc156_1092"
    INDEX 01 04:54:37
  TRACK 157 AUDIO
    TITLE "2:cjc156_1093"
    INDEX 01 04:55:29
  TRACK 158 AUDIO
    TITLE "3:cjc156_1094"
    INDEX 01 04:57:49
  TRACK 159 AUDIO
    TITLE "2:cjc156_1095"
    INDEX 01 05:00:05
  TRACK 160 AUDIO
    TITLE "3:cjc156_1096"
    INDEX 01 05:02:06
  TRACK 161 AUDIO
    TITLE "2:cjc156_1097"
    INDEX 01 05:04:12
  TRACK 162 AUDIO
    TITLE "3:cjc156_1098"
    INDEX 01 05:05:20
  TRACK 163 AUDIO
    TITLE "2:cjc156_1099"
    INDEX 01 05:06:27
  TRACK 164 AUDIO
    TITLE "3:cjc156_1100"
    INDEX 01 05:08:51
  TRACK 165 AUDIO
    TITLE "2:cjc156_1101"
    INDEX 01 05:11:04
  TRACK 166 AUDIO
    TITLE "3:cjc156_1102"
    INDEX 01 05:13:01
  TRACK 167 AUDIO
    TITLE "2:cjc156_1103"
    INDEX 01 05:15:04
  TRACK 168 AUDIO
    TITLE "3:cjc156_1104"
    INDEX 01 05:16:27
  TRACK 169 AUDIO
    TITLE "2:cjc156_1105"
    INDEX 01 05:17:54
  TRACK 170 AUDIO
    TITLE "3:cjc156_1106"
    INDEX 01 05:19:14
  TRACK 171 AUDIO
    TITLE "2:cjc156_1107"
    INDEX 01 05:20:58
  TRACK 172 AUDIO
    TITLE "3:cjc156_1108"
    INDEX 01 05:22:53
  TRACK 173 AUDIO
    TITLE "2:cjc156_1109"
    INDEX 01 05:24:58
  TRACK 174 AUDIO
    TITLE "3:cjc156_1110"
    INDEX 01 05:25:73
  TRACK 175 AUDIO
    TITLE "2:cjc156_1111"
    INDEX 01 05:27:19
  TRACK 176 AUDIO
    TITLE "3:cjc156_1112"
    INDEX 01 05:28:44
  TRACK 177 AUDIO
    TITLE "2:cjc156_1113"
    INDEX 01 05:29:73
  TRACK 178 AUDIO
    TITLE "3:cjc156_1114"
    INDEX 01 05:32:61
  TRACK 179 AUDIO
    TITLE "2:cjc156_1115"
    INDEX 01 05:35:54
  TRACK 180 AUDIO
    TITLE "3:cjc156_1116"
    INDEX 01 05:38:23
  TRACK 181 AUDIO
    TITLE "2:cjc156_1117"
    INDEX 01 05:40:71
  TRACK 182 AUDIO
    TITLE "3:cjc156_1118"
    INDEX 01 05:42:34
  TRACK 183 AUDIO
    TITLE "2:cjc156_1119"
    INDEX 01 05:44:02
  TRACK 184 AUDIO
    TITLE "3:cjc156_1120"
    INDEX 01 05:44:71
  TRACK 185 AUDIO
    TITLE "2:cjc156_1121"
    INDEX 01 05:45:68
  TRACK 186 AUDIO
    TITLE "3:cjc156_1122"
    INDEX 01 05:48:00
  TRACK 187 AUDIO
    TITLE "2:cjc156_1123"
    INDEX 01 05:50:10
  TRACK 188 AUDIO
    TITLE "3:cjc156_1124"
    INDEX 01 05:51:41
  TRACK 189 AUDIO
    TITLE "2:cjc156_1125"
    INDEX 01 05:53:03
  TRACK 190 AUDIO
    TITLE "3:cjc156_1126"
    INDEX 01 05:55:29
  TRACK 191 AUDIO
    TITLE "2:cjc156_1127"
    INDEX 01 05:57:59
  TRACK 192 AUDIO
    TITLE "3:cjc156_1128"
    INDEX 01 05:59:09
  TRACK 193 AUDIO
    TITLE "2:cjc156_1129"
    INDEX 01 06:00:34
  TRACK 194 AUDIO
    TITLE "3:cjc156_1130"
    INDEX 01 06:02:23
  TRACK 195 AUDIO
    TITLE "2:cjc156_1131"
    INDEX 01 06:04:18
  TRACK 196 AUDIO
    TITLE "3:cjc156_1132"
    INDEX 01 06:06:47
  TRACK 197 AUDIO
    TITLE "2:cjc156_1133"
    INDEX 01 06:09:08
  TRACK 198 AUDIO
    TITLE "3:cjc156_1134"
    INDEX 01 06:10:60
  TRACK 199 AUDIO
    TITLE "2:cjc156_1135"
    INDEX 01 06:12:47
  TRACK 200 AUDIO
    TITLE "3:cjc156_1136"
    INDEX 01 06:15:14
  TRACK 201 AUDIO
    TITLE "2:cjc156_1137"
    INDEX 01 06:17:64
  TRACK 202 AUDIO
    TITLE "3:cjc156_1138"
    INDEX 01 06:20:21
  TRACK 203 AUDIO
    TITLE "2:cjc156_1139"
    INDEX 01 06:22:57
  TRACK 204 AUDIO
    TITLE "3:cjc156_1140"
    INDEX 01 06:25:03
  TRACK 205 AUDIO
    TITLE "2:cjc156_1141"
    INDEX 01 06:27:29
  TRACK 206 AUDIO
    TITLE "3:cjc156_1142"
    INDEX 01 06:28:40
  TRACK 207 AUDIO
    TITLE "2:cjc156_1143"
    INDEX 01 06:29:56
  TRACK 208 AUDIO
    TITLE "3:cjc156_1144"
    INDEX 01 06:32:09
  TRACK 209 AUDIO
    TITLE "2:cjc156_1145"
    INDEX 01 06:34:47
  TRACK 210 AUDIO
    TITLE "3:cjc156_1146"
    INDEX 01 06:36:20
  TRACK 211 AUDIO
    TITLE "2:cjc156_1147"
    INDEX 01 06:37:67
  TRACK 212 AUDIO
    TITLE "3:cjc156_1148"
    INDEX 01 06:39:38
  TRACK 213 AUDIO
    TITLE "2:cjc156_1149"
    INDEX 01 06:41:16
  TRACK 214 AUDIO
    TITLE "3:cjc156_1150"
    INDEX 01 06:42:54
  TRACK 215 AUDIO
    TITLE "2:cjc156_1151"
    INDEX 01 06:44:28
  TRACK 216 AUDIO
    TITLE "3:cjc156_1152"
    INDEX 01 06:45:39
  TRACK 217 AUDIO
    TITLE "2:cjc156_1153"
    INDEX 01 06:46:62
  TRACK 218 AUDIO
    TITLE "3:cjc156_1154"
    INDEX 01 06:48:69
  TRACK 219 AUDIO
    TITLE "2:cjc156_1155"
    INDEX 01 06:51:04
  TRACK 220 AUDIO
    TITLE "3:cjc156_1156"
    INDEX 01 06:52:33
  TRACK 221 AUDIO
    TITLE "2:cjc156_1157"
    INDEX 01 06:53:72
  TRACK 222 AUDIO
    TITLE "3:cjc156_1158"
    INDEX 01 06:56:23
  TRACK 223 AUDIO
    TITLE "2:cjc156_1159"
    INDEX 01 06:58:55
  TRACK 224 AUDIO
    TITLE "3:cjc156_1160"
    INDEX 01 06:59:55
  TRACK 225 AUDIO
    TITLE "2:cjc156_1161"
    INDEX 01 07:00:58
  TRACK 226 AUDIO
    TITLE "3:cjc156_1162"
    INDEX 01 07:02:02
  TRACK 227 AUDIO
    TITLE "2:cjc156_1163"
    INDEX 01 07:03:25
  TRACK 228 AUDIO
    TITLE "3:cjc156_1164"
    INDEX 01 07:05:65
  TRACK 229 AUDIO
    TITLE "2:cjc156_1165"
    INDEX 01 07:08:28
  TRACK 230 AUDIO
    TITLE "3:cjc156_1166"
    INDEX 01 07:10:29
  TRACK 231 AUDIO
    TITLE "2:cjc156_1167"
    INDEX 01 07:12:44
  TRACK 232 AUDIO
    TITLE "3:cjc156_1168"
    INDEX 01 07:14:01
  TRACK 233 AUDIO
    TITLE "2:cjc156_1169"
    INDEX 01 07:15:46
  TRACK 234 AUDIO
    TITLE "3:cjc156_1170"
    INDEX 01 07:17:06
  TRACK 235 AUDIO
    TITLE "2:cjc156_1171"
    INDEX 01 07:18:44
  TRACK 236 AUDIO
    TITLE "3:cjc156_1172"
    INDEX 01 07:20:72
  TRACK 237 AUDIO
    TITLE "2:cjc156_1173"
    INDEX 01 07:23:38
  TRACK 238 AUDIO
    TITLE "3:cjc156_1174"
    INDEX 01 07:25:09
  TRACK 239 AUDIO
    TITLE "2:cjc156_1175"
    INDEX 01 07:26:65
  TRACK 240 AUDIO
    TITLE "3:cjc156_1176"
    INDEX 01 07:28:00
  TRACK 241 AUDIO
    TITLE "2:cjc156_1177"
    INDEX 01 07:29:07
  TRACK 242 AUDIO
    TITLE "3:cjc156_1178"
    INDEX 01 07:30:45
  TRACK 243 AUDIO
    TITLE "2:cjc156_1179"
    INDEX 01 07:32:07
  TRACK 244 AUDIO
    TITLE "3:cjc156_1180"
    INDEX 01 07:33:18
  TRACK 245 AUDIO
    TITLE "2:cjc156_1181"
    INDEX 01 07:34:30
  TRACK 246 AUDIO
    TITLE "3:cjc156_1182"
    INDEX 01 07:36:23
  TRACK 247 AUDIO
    TITLE "2:cjc156_1183"
    INDEX 01 07:38:21
  TRACK 248 AUDIO
    TITLE "3:cjc156_1184"
    INDEX 01 07:40:65
  TRACK 249 AUDIO
    TITLE "2:cjc156_1185"
    INDEX 01 07:43:32
  TRACK 250 AUDIO
    TITLE "3:cjc156_1186"
    INDEX 01 07:45:10
  TRACK 251 AUDIO
    TITLE "2:cjc156_1187"
    INDEX 01 07:46:62
  TRACK 252 AUDIO
    TITLE "3:cjc156_1188"
    INDEX 01 07:48:14
  TRACK 253 AUDIO
    TITLE "0:"
    INDEX 01 07:49:51
